<svg version="1.1" xmlns="http://www.w3.org/2000/svg" xmlns:xlink="http://www.w3.org/1999/xlink" width="1200" height="800"><defs/><g transform="scale(2,2)"><g id="background-8a8d052f"><rect fill="white" stroke="none" x="0" y="0" width="600" height="400" class="dcg-svg-background"/></g><g id="background-images-8a8d052f"/><g id="graphpaper-8a8d052f"><g id="grid-8a8d052f"><g><path fill="none" stroke="rgb(0,0,0)" class="dcg-svg-minor-gridline" paint-order="fill stroke markers" d=" M 33.5 0 L 33.5 400" stroke-opacity="0.3" stroke-miterlimit="10" stroke-dasharray=""/><path fill="none" stroke="rgb(0,0,0)" class="dcg-svg-minor-gridline" paint-order="fill stroke markers" d=" M 66.5 0 L 66.5 400" stroke-opacity="0.3" stroke-miterlimit="10" stroke-dasharray=""/><path fill="none" stroke="rgb(0,0,0)" class="dcg-svg-minor-gridline" paint-order="fill stroke markers" d=" M 100.5 0 L 100.5 400" stroke-opacity="0.3" stroke-miterlimit="10" stroke-dasharray=""/><path fill="none" stroke="rgb(0,0,0)" class="dcg-svg-minor-gridline" paint-order="fill stroke markers" d=" M 133.5 0 L 133.5 400" stroke-opacity="0.3" stroke-miterlimit="10" stroke-dasharray=""/><path fill="none" stroke="rgb(0,0,0)" class="dcg-svg-minor-gridline" paint-order="fill stroke markers" d=" M 200.5 0 L 200.5 400" stroke-opacity="0.3" stroke-miterlimit="10" stroke-dasharray=""/><path fill="none" stroke="rgb(0,0,0)" class="dcg-svg-minor-gridline" paint-order="fill stroke markers" d=" M 233.5 0 L 233.5 400" stroke-opacity="0.3" stroke-miterlimit="10" stroke-dasharray=""/><path fill="none" stroke="rgb(0,0,0)" class="dcg-svg-minor-gridline" paint-order="fill stroke markers" d=" M 266.5 0 L 266.5 400" stroke-opacity="0.3" stroke-miterlimit="10" stroke-dasharray=""/><path fill="none" stroke="rgb(0,0,0)" class="dcg-svg-minor-gridline" paint-order="fill stroke markers" d=" M 300.5 0 L 300.5 400" stroke-opacity="0.3" stroke-miterlimit="10" stroke-dasharray=""/><path fill="none" stroke="rgb(0,0,0)" class="dcg-svg-minor-gridline" paint-order="fill stroke markers" d=" M 333.5 0 L 333.5 400" stroke-opacity="0.3" stroke-miterlimit="10" stroke-dasharray=""/><path fill="none" stroke="rgb(0,0,0)" class="dcg-svg-minor-gridline" paint-order="fill stroke markers" d=" M 366.5 0 L 366.5 400" stroke-opacity="0.3" stroke-miterlimit="10" stroke-dasharray=""/><path fill="none" stroke="rgb(0,0,0)" class="dcg-svg-minor-gridline" paint-order="fill stroke markers" d=" M 399.5 0 L 399.5 400" stroke-opacity="0.3" stroke-miterlimit="10" stroke-dasharray=""/><path fill="none" stroke="rgb(0,0,0)" class="dcg-svg-minor-gridline" paint-order="fill stroke markers" d=" M 433.5 0 L 433.5 400" stroke-opacity="0.3" stroke-miterlimit="10" stroke-dasharray=""/><path fill="none" stroke="rgb(0,0,0)" class="dcg-svg-minor-gridline" paint-order="fill stroke markers" d=" M 466.5 0 L 466.5 400" stroke-opacity="0.3" stroke-miterlimit="10" stroke-dasharray=""/><path fill="none" stroke="rgb(0,0,0)" class="dcg-svg-minor-gridline" paint-order="fill stroke markers" d=" M 499.5 0 L 499.5 400" stroke-opacity="0.3" stroke-miterlimit="10" stroke-dasharray=""/><path fill="none" stroke="rgb(0,0,0)" class="dcg-svg-minor-gridline" paint-order="fill stroke markers" d=" M 533.5 0 L 533.5 400" stroke-opacity="0.3" stroke-miterlimit="10" stroke-dasharray=""/><path fill="none" stroke="rgb(0,0,0)" class="dcg-svg-minor-gridline" paint-order="fill stroke markers" d=" M 566.5 0 L 566.5 400" stroke-opacity="0.3" stroke-miterlimit="10" stroke-dasharray=""/><path fill="none" stroke="rgb(0,0,0)" class="dcg-svg-minor-gridline" paint-order="fill stroke markers" d=" M 0 392.5 L 600 392.5" stroke-opacity="0.3" stroke-miterlimit="10" stroke-dasharray=""/><path fill="none" stroke="rgb(0,0,0)" class="dcg-svg-minor-gridline" paint-order="fill stroke markers" d=" M 0 360.5 L 600 360.5" stroke-opacity="0.3" stroke-miterlimit="10" stroke-dasharray=""/><path fill="none" stroke="rgb(0,0,0)" class="dcg-svg-minor-gridline" paint-order="fill stroke markers" d=" M 0 328.5 L 600 328.5" stroke-opacity="0.3" stroke-miterlimit="10" stroke-dasharray=""/><path fill="none" stroke="rgb(0,0,0)" class="dcg-svg-minor-gridline" paint-order="fill stroke markers" d=" M 0 296.5 L 600 296.5" stroke-opacity="0.3" stroke-miterlimit="10" stroke-dasharray=""/><path fill="none" stroke="rgb(0,0,0)" class="dcg-svg-minor-gridline" paint-order="fill stroke markers" d=" M 0 264.5 L 600 264.5" stroke-opacity="0.3" stroke-miterlimit="10" stroke-dasharray=""/><path fill="none" stroke="rgb(0,0,0)" class="dcg-svg-minor-gridline" paint-order="fill stroke markers" d=" M 0 232.5 L 600 232.5" stroke-opacity="0.3" stroke-miterlimit="10" stroke-dasharray=""/><path fill="none" stroke="rgb(0,0,0)" class="dcg-svg-minor-gridline" paint-order="fill stroke markers" d=" M 0 168.5 L 600 168.5" stroke-opacity="0.3" stroke-miterlimit="10" stroke-dasharray=""/><path fill="none" stroke="rgb(0,0,0)" class="dcg-svg-minor-gridline" paint-order="fill stroke markers" d=" M 0 136.5 L 600 136.5" stroke-opacity="0.3" stroke-miterlimit="10" stroke-dasharray=""/><path fill="none" stroke="rgb(0,0,0)" class="dcg-svg-minor-gridline" paint-order="fill stroke markers" d=" M 0 103.5 L 600 103.5" stroke-opacity="0.3" stroke-miterlimit="10" stroke-dasharray=""/><path fill="none" stroke="rgb(0,0,0)" class="dcg-svg-minor-gridline" paint-order="fill stroke markers" d=" M 0 72.5 L 600 72.5" stroke-opacity="0.3" stroke-miterlimit="10" stroke-dasharray=""/><path fill="none" stroke="rgb(0,0,0)" class="dcg-svg-minor-gridline" paint-order="fill stroke markers" d=" M 0 40.5 L 600 40.5" stroke-opacity="0.3" stroke-miterlimit="10" stroke-dasharray=""/><path fill="none" stroke="rgb(0,0,0)" class="dcg-svg-minor-gridline" paint-order="fill stroke markers" d=" M 0 7.5 L 600 7.5" stroke-opacity="0.3" stroke-miterlimit="10" stroke-dasharray=""/><path fill="none" stroke="rgb(0,0,0)" class="dcg-svg-major-gridline" paint-order="fill stroke markers" d=" M 33.5 0 L 33.5 400" stroke-opacity="0.4285714285714285" stroke-miterlimit="10" stroke-dasharray=""/><path fill="none" stroke="rgb(0,0,0)" class="dcg-svg-major-gridline" paint-order="fill stroke markers" d=" M 300.5 0 L 300.5 400" stroke-opacity="0.4285714285714285" stroke-miterlimit="10" stroke-dasharray=""/><path fill="none" stroke="rgb(0,0,0)" class="dcg-svg-major-gridline" paint-order="fill stroke markers" d=" M 433.5 0 L 433.5 400" stroke-opacity="0.4285714285714285" stroke-miterlimit="10" stroke-dasharray=""/><path fill="none" stroke="rgb(0,0,0)" class="dcg-svg-major-gridline" paint-order="fill stroke markers" d=" M 566.5 0 L 566.5 400" stroke-opacity="0.4285714285714285" stroke-miterlimit="10" stroke-dasharray=""/><path fill="none" stroke="rgb(0,0,0)" class="dcg-svg-major-gridline" paint-order="fill stroke markers" d=" M 0 360.5 L 600 360.5" stroke-opacity="0.4285714285714285" stroke-miterlimit="10" stroke-dasharray=""/><path fill="none" stroke="rgb(0,0,0)" class="dcg-svg-major-gridline" paint-order="fill stroke markers" d=" M 0 40.5 L 600 40.5" stroke-opacity="0.4285714285714285" stroke-miterlimit="10" stroke-dasharray=""/></g></g><g id="axis-8a8d052f"><g id="yaxis-8a8d052f"><title>Y axis</title><g><path fill="none" stroke="rgb(0,0,0)" class="dcg-svg-axis-line" paint-order="fill stroke markers" d=" M 167 0 L 167 400" stroke-opacity="0.9" stroke-miterlimit="10" stroke-width="2" stroke-dasharray=""/></g></g><g id="xaxis-8a8d052f"><title>X axis</title><g><path fill="none" stroke="rgb(0,0,0)" class="dcg-svg-axis-line" paint-order="fill stroke markers" d=" M 0 200 L 600 200" stroke-opacity="0.9" stroke-miterlimit="10" stroke-width="2" stroke-dasharray=""/></g></g><g><g class="dcg-svg-axis-value"><text fill="none" stroke="#ffffff" font-family="Arial" font-size="17px" font-style="normal" font-weight="normal" text-decoration="normal" x="156.93937174479166" y="218.124" text-anchor="middle" stroke-miterlimit="2" stroke-width="3" stroke-dasharray="">0</text><text fill="#000000" stroke="none" font-family="Arial" font-size="17px" font-style="normal" font-weight="normal" text-decoration="normal" x="156.93937174479166" y="218.124" text-anchor="middle">0</text></g><g class="dcg-svg-axis-value"><text fill="none" stroke="#ffffff" font-family="Arial" font-size="17px" font-style="normal" font-weight="normal" text-decoration="normal" x="30.502766927083343" y="218.124" text-anchor="middle" stroke-miterlimit="2" stroke-width="3" stroke-dasharray="">-π</text><text fill="#000000" stroke="none" font-family="Arial" font-size="17px" font-style="normal" font-weight="normal" text-decoration="normal" x="30.502766927083343" y="218.124" text-anchor="middle">-π</text></g><g class="dcg-svg-axis-value"><text fill="none" stroke="#ffffff" font-family="Arial" font-size="17px" font-style="normal" font-weight="normal" text-decoration="normal" x="300" y="218.124" text-anchor="middle" stroke-miterlimit="2" stroke-width="3" stroke-dasharray="">π</text><text fill="#000000" stroke="none" font-family="Arial" font-size="17px" font-style="normal" font-weight="normal" text-decoration="normal" x="300" y="218.124" text-anchor="middle">π</text></g><g class="dcg-svg-axis-value"><text fill="none" stroke="#ffffff" font-family="Arial" font-size="17px" font-style="normal" font-weight="normal" text-decoration="normal" x="433.33333333333326" y="218.124" text-anchor="middle" stroke-miterlimit="2" stroke-width="3" stroke-dasharray="">2π</text><text fill="#000000" stroke="none" font-family="Arial" font-size="17px" font-style="normal" font-weight="normal" text-decoration="normal" x="433.33333333333326" y="218.124" text-anchor="middle">2π</text></g><g class="dcg-svg-axis-value"><text fill="none" stroke="#ffffff" font-family="Arial" font-size="17px" font-style="normal" font-weight="normal" text-decoration="normal" x="566.6666666666666" y="218.124" text-anchor="middle" stroke-miterlimit="2" stroke-width="3" stroke-dasharray="">3π</text><text fill="#000000" stroke="none" font-family="Arial" font-size="17px" font-style="normal" font-weight="normal" text-decoration="normal" x="566.6666666666666" y="218.124" text-anchor="middle">3π</text></g><g class="dcg-svg-axis-value"><text fill="none" stroke="#ffffff" font-family="Arial" font-size="17px" font-style="normal" font-weight="normal" text-decoration="normal" x="154.10880533854166" y="364.624" text-anchor="middle" stroke-miterlimit="2" stroke-width="3" stroke-dasharray="">-1</text><text fill="#000000" stroke="none" font-family="Arial" font-size="17px" font-style="normal" font-weight="normal" text-decoration="normal" x="154.10880533854166" y="364.624" text-anchor="middle">-1</text></g><g class="dcg-svg-axis-value"><text fill="none" stroke="#ffffff" font-family="Arial" font-size="17px" font-style="normal" font-weight="normal" text-decoration="normal" x="156.93937174479166" y="44.624" text-anchor="middle" stroke-miterlimit="2" stroke-width="3" stroke-dasharray="">1</text><text fill="#000000" stroke="none" font-family="Arial" font-size="17px" font-style="normal" font-weight="normal" text-decoration="normal" x="156.93937174479166" y="44.624" text-anchor="middle">1</text></g></g></g></g><g id="expressions-8a8d052f"><g id="sketch-8a8d052f"><title>Expression 1</title><path fill="#6042a6" stroke="none" paint-order="stroke fill markers" d="" fill-opacity="0.4"/><g><path fill="none" stroke="#6042a6" class="dcg-svg-curve" paint-order="fill stroke markers" d=" M 2.842170943040401e-14 313.1370849898476 L 2.842170943040401e-14 313.1370849898476 L 3.6621093750000284 322.4662585047581 L 7.031250000000028 330.2458127529518 L 10.253906250000028 336.92011972212066 L 13.18359375 342.30387723587125 L 15.966796875 346.7909830519576 L 18.603515625 350.46011178140986 L 21.24023437500003 353.5487012751595 L 23.73046875000003 355.92187734033854 L 26.07421875000003 357.66535659132296 L 28.125 358.7967255357936 L 30.02929687500003 359.5154009356279 L 31.787109375 359.89382823948176 L 33.54492187500003 359.99801163710464 L 35.302734375 359.8277724370345 L 37.060546875 359.38340262717196 L 38.964843750000014 358.59354853380063 L 41.015625000000014 357.38598707387683 L 43.212890625 355.6845584533911 L 45.703125000000014 353.25222608440527 L 48.193359375000014 350.2924393253874 L 50.830078125 346.5949906356471 L 53.613281250000014 342.0788140876489 L 56.542968750000014 336.66550335867817 L 59.619140625000014 330.281441472668 L 62.841796874999986 322.8602269977697 L 66.35742187500003 313.95843743079126 L 70.16601562499999 303.4349831283933 L 74.267578125 291.1737122777069 L 78.80859375 276.611287661023 L 83.93554687500001 259.12577989093603 L 90.08789062500001 237.02899345271126 L 99.02343750000003 203.6812290350142 L 111.91406250000003 155.67262715102393 L 118.212890625 133.4270611312673 L 123.33984375 116.37930369102452 L 127.88085937500001 102.29015512757015 L 131.982421875 90.52077971540751 L 135.791015625 80.50469798697493 L 139.306640625 72.11089971438624 L 142.529296875 65.1857287118741 L 145.60546875 59.29957307648746 L 148.53515625 54.380197138793335 L 151.318359375 50.34891821143813 L 153.955078125 47.12299944964019 L 156.4453125 44.61773464804398 L 158.935546875 42.64725527884909 L 161.1328125 41.35816426900098 L 163.037109375 40.58472931583427 L 164.794921875 40.15557332487461 L 166.552734375 40.000576508432914 L 168.310546875 40.12000471124409 L 170.068359375 40.513653094527285 L 171.826171875 41.18084648731741 L 173.73046875 42.2109887411315 L 175.78125 43.6754971747593 L 178.125 45.79582947272965 L 180.615234375 48.56364773081461 L 183.10546875 51.85267061251682 L 185.7421875 55.890651323416506 L 188.525390625 60.755847806052515 L 191.45507812499997 66.52335541752106 L 194.677734375 73.60077542227346 L 198.046875 81.77802808630162 L 201.708984375 91.509084092159 L 205.6640625 102.92301967447611 L 209.912109375 116.1178954426123 L 214.74609375 132.14636761349584 L 220.3125 151.6790481089236 L 227.490234375 178.04155756743756 L 248.58398437499997 256.2642853809847 L 254.15039062499997 275.36935833623716 L 258.984375 290.92143242722113 L 263.232421875 303.62211514347365 L 267.1875 314.516932045411 L 270.849609375 323.7205893266357 L 274.21875 331.3764023985768 L 277.44140625 337.92567394939 L 280.37109375 343.19071465129934 L 283.154296875 347.56111793844525 L 285.791015625 351.1166241448185 L 288.28125 353.9394246830467 L 290.771484375 356.23240567200867 L 293.115234375 357.89942590445 L 295.166015625 358.9632997751229 L 297.0703125 359.61894962216314 L 298.828125 359.9390115992286 L 300.5859375 359.9847521732564 L 302.34375 359.7560928917272 L 304.1015625 359.2534259424772 L 306.005859375 358.4006713121921 L 308.056640625 357.12580861189906 L 310.25390625 355.35294962936285 L 312.744140625 352.8407472816939 L 315.234375 349.8025067472445 L 317.87109375 346.023832955167 L 320.654296875 341.42431578652946 L 323.583984375 335.92632434953936 L 326.66015625 329.4571439975292 L 329.8828125 321.9514077015326 L 333.3984375 312.9634018318944 L 337.20703125 302.35426427002244 L 341.30859375 290.01046369610015 L 345.849609375 275.3693583362371 L 351.12304687499994 257.2968615568099 L 357.421875 234.57708753219512 L 366.943359375 198.9569004533857 L 378.515625 155.90850891024658 L 384.814453125 133.6503219446176 L 389.94140625 116.58865169942467 L 394.482421875 102.48462474925108 L 398.583984375 90.69989384337461 L 402.392578125 80.66805344217983 L 405.908203125 72.25853883139898 L 409.130859375 65.31806900575796 L 412.20703125 59.416597202389084 L 415.13671875 54.4820619021591 L 417.919921875 50.435931026617766 L 420.55664062499994 47.195595899245745 L 423.046875 44.676457483367955 L 425.537109375 42.69190239113209 L 427.734375 41.39026242462154 L 429.638671875 40.605880917626905 L 431.3964843749999 40.16658212329821 L 433.154296875 40.001423621608694 L 434.912109375 40.11068868623528 L 436.669921875 40.49418990983108 L 438.427734375 41.15126952545933 L 440.33203125 42.170512975739655 L 442.3828125 43.62337597676802 L 444.7265625 45.730549767720674 L 447.216796875 48.48460609251029 L 449.70703125 51.76013908172317 L 452.34375 55.78418447263647 L 455.126953125 60.63511816863229 L 458.056640625 66.38817414737295 L 461.1328125 73.11328632328903 L 464.501953125 81.24200630369859 L 468.1640625 90.92414813253612 L 472.119140625 102.29015512757027 L 476.3671874999999 115.43967975324341 L 481.201171875 131.42482609642508 L 486.767578125 150.91922811788922 L 493.798828125 176.7052249156228 L 515.625 257.5832058455983 L 521.19140625 276.6112876610231 L 526.025390625 292.07913747758863 L 530.2734375 304.6933788530882 L 534.228515625 315.4980567170396 L 537.890625 324.6106419810363 L 541.259765625 332.17680285514643 L 544.3359375 338.359081203114 L 547.265625 343.57193291286706 L 550.048828125 347.89107084122804 L 552.685546875 351.3966978092391 L 555.17578125 354.1713945936412 L 557.6660156249999 356.41547344854587 L 560.009765625 358.03588953087797 L 562.060546875 359.05863858447634 L 563.96484375 359.6758997642155 L 565.72265625 359.9604225392398 L 567.48046875 359.97058718798405 L 569.23828125 359.7063762764234 L 570.99609375 359.1682429692187 L 572.9003906249999 358.2772332251552 L 574.9511718749999 356.96145277857806 L 577.1484375 355.1451816198867 L 579.638671875 352.5844580583344 L 582.12890625 349.49857839099604 L 584.7656249999999 345.67060676129074 L 587.5488281249999 341.02053530427315 L 590.478515625 335.47120809045396 L 593.5546874999999 328.95046249138824 L 596.77734375 321.39356360966497 L 600 313.13708498984755" stroke-linecap="round" stroke-linejoin="round" stroke-miterlimit="10" stroke-width="3.5" stroke-opacity="0.9" stroke-dasharray=""/></g></g></g><g id="labels-8a8d052f"/></g></svg>