<svg version="1.1" xmlns="http://www.w3.org/2000/svg" xmlns:xlink="http://www.w3.org/1999/xlink" width="1200" height="800"><defs/><g transform="scale(2,2)"><g id="background-71bfa38b"><rect fill="white" stroke="none" x="0" y="0" width="600" height="400" class="dcg-svg-background"/></g><g id="background-images-71bfa38b"/><g id="graphpaper-71bfa38b"><g id="grid-71bfa38b"><g><path fill="none" stroke="rgb(0,0,0)" class="dcg-svg-minor-gridline" paint-order="fill stroke markers" d=" M 33.5 0 L 33.5 400" stroke-opacity="0.3" stroke-miterlimit="10" stroke-dasharray=""/><path fill="none" stroke="rgb(0,0,0)" class="dcg-svg-minor-gridline" paint-order="fill stroke markers" d=" M 66.5 0 L 66.5 400" stroke-opacity="0.3" stroke-miterlimit="10" stroke-dasharray=""/><path fill="none" stroke="rgb(0,0,0)" class="dcg-svg-minor-gridline" paint-order="fill stroke markers" d=" M 100.5 0 L 100.5 400" stroke-opacity="0.3" stroke-miterlimit="10" stroke-dasharray=""/><path fill="none" stroke="rgb(0,0,0)" class="dcg-svg-minor-gridline" paint-order="fill stroke markers" d=" M 133.5 0 L 133.5 400" stroke-opacity="0.3" stroke-miterlimit="10" stroke-dasharray=""/><path fill="none" stroke="rgb(0,0,0)" class="dcg-svg-minor-gridline" paint-order="fill stroke markers" d=" M 200.5 0 L 200.5 400" stroke-opacity="0.3" stroke-miterlimit="10" stroke-dasharray=""/><path fill="none" stroke="rgb(0,0,0)" class="dcg-svg-minor-gridline" paint-order="fill stroke markers" d=" M 233.5 0 L 233.5 400" stroke-opacity="0.3" stroke-miterlimit="10" stroke-dasharray=""/><path fill="none" stroke="rgb(0,0,0)" class="dcg-svg-minor-gridline" paint-order="fill stroke markers" d=" M 266.5 0 L 266.5 400" stroke-opacity="0.3" stroke-miterlimit="10" stroke-dasharray=""/><path fill="none" stroke="rgb(0,0,0)" class="dcg-svg-minor-gridline" paint-order="fill stroke markers" d=" M 300.5 0 L 300.5 400" stroke-opacity="0.3" stroke-miterlimit="10" stroke-dasharray=""/><path fill="none" stroke="rgb(0,0,0)" class="dcg-svg-minor-gridline" paint-order="fill stroke markers" d=" M 333.5 0 L 333.5 400" stroke-opacity="0.3" stroke-miterlimit="10" stroke-dasharray=""/><path fill="none" stroke="rgb(0,0,0)" class="dcg-svg-minor-gridline" paint-order="fill stroke markers" d=" M 366.5 0 L 366.5 400" stroke-opacity="0.3" stroke-miterlimit="10" stroke-dasharray=""/><path fill="none" stroke="rgb(0,0,0)" class="dcg-svg-minor-gridline" paint-order="fill stroke markers" d=" M 399.5 0 L 399.5 400" stroke-opacity="0.3" stroke-miterlimit="10" stroke-dasharray=""/><path fill="none" stroke="rgb(0,0,0)" class="dcg-svg-minor-gridline" paint-order="fill stroke markers" d=" M 433.5 0 L 433.5 400" stroke-opacity="0.3" stroke-miterlimit="10" stroke-dasharray=""/><path fill="none" stroke="rgb(0,0,0)" class="dcg-svg-minor-gridline" paint-order="fill stroke markers" d=" M 466.5 0 L 466.5 400" stroke-opacity="0.3" stroke-miterlimit="10" stroke-dasharray=""/><path fill="none" stroke="rgb(0,0,0)" class="dcg-svg-minor-gridline" paint-order="fill stroke markers" d=" M 499.5 0 L 499.5 400" stroke-opacity="0.3" stroke-miterlimit="10" stroke-dasharray=""/><path fill="none" stroke="rgb(0,0,0)" class="dcg-svg-minor-gridline" paint-order="fill stroke markers" d=" M 533.5 0 L 533.5 400" stroke-opacity="0.3" stroke-miterlimit="10" stroke-dasharray=""/><path fill="none" stroke="rgb(0,0,0)" class="dcg-svg-minor-gridline" paint-order="fill stroke markers" d=" M 566.5 0 L 566.5 400" stroke-opacity="0.3" stroke-miterlimit="10" stroke-dasharray=""/><path fill="none" stroke="rgb(0,0,0)" class="dcg-svg-minor-gridline" paint-order="fill stroke markers" d=" M 0 392.5 L 600 392.5" stroke-opacity="0.3" stroke-miterlimit="10" stroke-dasharray=""/><path fill="none" stroke="rgb(0,0,0)" class="dcg-svg-minor-gridline" paint-order="fill stroke markers" d=" M 0 360.5 L 600 360.5" stroke-opacity="0.3" stroke-miterlimit="10" stroke-dasharray=""/><path fill="none" stroke="rgb(0,0,0)" class="dcg-svg-minor-gridline" paint-order="fill stroke markers" d=" M 0 328.5 L 600 328.5" stroke-opacity="0.3" stroke-miterlimit="10" stroke-dasharray=""/><path fill="none" stroke="rgb(0,0,0)" class="dcg-svg-minor-gridline" paint-order="fill stroke markers" d=" M 0 296.5 L 600 296.5" stroke-opacity="0.3" stroke-miterlimit="10" stroke-dasharray=""/><path fill="none" stroke="rgb(0,0,0)" class="dcg-svg-minor-gridline" paint-order="fill stroke markers" d=" M 0 264.5 L 600 264.5" stroke-opacity="0.3" stroke-miterlimit="10" stroke-dasharray=""/><path fill="none" stroke="rgb(0,0,0)" class="dcg-svg-minor-gridline" paint-order="fill stroke markers" d=" M 0 232.5 L 600 232.5" stroke-opacity="0.3" stroke-miterlimit="10" stroke-dasharray=""/><path fill="none" stroke="rgb(0,0,0)" class="dcg-svg-minor-gridline" paint-order="fill stroke markers" d=" M 0 168.5 L 600 168.5" stroke-opacity="0.3" stroke-miterlimit="10" stroke-dasharray=""/><path fill="none" stroke="rgb(0,0,0)" class="dcg-svg-minor-gridline" paint-order="fill stroke markers" d=" M 0 136.5 L 600 136.5" stroke-opacity="0.3" stroke-miterlimit="10" stroke-dasharray=""/><path fill="none" stroke="rgb(0,0,0)" class="dcg-svg-minor-gridline" paint-order="fill stroke markers" d=" M 0 103.5 L 600 103.5" stroke-opacity="0.3" stroke-miterlimit="10" stroke-dasharray=""/><path fill="none" stroke="rgb(0,0,0)" class="dcg-svg-minor-gridline" paint-order="fill stroke markers" d=" M 0 72.5 L 600 72.5" stroke-opacity="0.3" stroke-miterlimit="10" stroke-dasharray=""/><path fill="none" stroke="rgb(0,0,0)" class="dcg-svg-minor-gridline" paint-order="fill stroke markers" d=" M 0 40.5 L 600 40.5" stroke-opacity="0.3" stroke-miterlimit="10" stroke-dasharray=""/><path fill="none" stroke="rgb(0,0,0)" class="dcg-svg-minor-gridline" paint-order="fill stroke markers" d=" M 0 7.5 L 600 7.5" stroke-opacity="0.3" stroke-miterlimit="10" stroke-dasharray=""/><path fill="none" stroke="rgb(0,0,0)" class="dcg-svg-major-gridline" paint-order="fill stroke markers" d=" M 33.5 0 L 33.5 400" stroke-opacity="0.4285714285714285" stroke-miterlimit="10" stroke-dasharray=""/><path fill="none" stroke="rgb(0,0,0)" class="dcg-svg-major-gridline" paint-order="fill stroke markers" d=" M 300.5 0 L 300.5 400" stroke-opacity="0.4285714285714285" stroke-miterlimit="10" stroke-dasharray=""/><path fill="none" stroke="rgb(0,0,0)" class="dcg-svg-major-gridline" paint-order="fill stroke markers" d=" M 433.5 0 L 433.5 400" stroke-opacity="0.4285714285714285" stroke-miterlimit="10" stroke-dasharray=""/><path fill="none" stroke="rgb(0,0,0)" class="dcg-svg-major-gridline" paint-order="fill stroke markers" d=" M 566.5 0 L 566.5 400" stroke-opacity="0.4285714285714285" stroke-miterlimit="10" stroke-dasharray=""/><path fill="none" stroke="rgb(0,0,0)" class="dcg-svg-major-gridline" paint-order="fill stroke markers" d=" M 0 360.5 L 600 360.5" stroke-opacity="0.4285714285714285" stroke-miterlimit="10" stroke-dasharray=""/><path fill="none" stroke="rgb(0,0,0)" class="dcg-svg-major-gridline" paint-order="fill stroke markers" d=" M 0 40.5 L 600 40.5" stroke-opacity="0.4285714285714285" stroke-miterlimit="10" stroke-dasharray=""/></g></g><g id="axis-71bfa38b"><g id="yaxis-71bfa38b"><title>Y axis</title><g><path fill="none" stroke="rgb(0,0,0)" class="dcg-svg-axis-line" paint-order="fill stroke markers" d=" M 167 0 L 167 400" stroke-opacity="0.9" stroke-miterlimit="10" stroke-width="2" stroke-dasharray=""/></g></g><g id="xaxis-71bfa38b"><title>X axis</title><g><path fill="none" stroke="rgb(0,0,0)" class="dcg-svg-axis-line" paint-order="fill stroke markers" d=" M 0 200 L 600 200" stroke-opacity="0.9" stroke-miterlimit="10" stroke-width="2" stroke-dasharray=""/></g></g><g><g class="dcg-svg-axis-value"><text fill="none" stroke="#ffffff" font-family="Arial" font-size="17px" font-style="normal" font-weight="normal" text-decoration="normal" x="156.93937174479166" y="218.124" text-anchor="middle" stroke-miterlimit="2" stroke-width="3" stroke-dasharray="">0</text><text fill="#000000" stroke="none" font-family="Arial" font-size="17px" font-style="normal" font-weight="normal" text-decoration="normal" x="156.93937174479166" y="218.124" text-anchor="middle">0</text></g><g class="dcg-svg-axis-value"><text fill="none" stroke="#ffffff" font-family="Arial" font-size="17px" font-style="normal" font-weight="normal" text-decoration="normal" x="30.502766927083343" y="218.124" text-anchor="middle" stroke-miterlimit="2" stroke-width="3" stroke-dasharray="">-π</text><text fill="#000000" stroke="none" font-family="Arial" font-size="17px" font-style="normal" font-weight="normal" text-decoration="normal" x="30.502766927083343" y="218.124" text-anchor="middle">-π</text></g><g class="dcg-svg-axis-value"><text fill="none" stroke="#ffffff" font-family="Arial" font-size="17px" font-style="normal" font-weight="normal" text-decoration="normal" x="300" y="218.124" text-anchor="middle" stroke-miterlimit="2" stroke-width="3" stroke-dasharray="">π</text><text fill="#000000" stroke="none" font-family="Arial" font-size="17px" font-style="normal" font-weight="normal" text-decoration="normal" x="300" y="218.124" text-anchor="middle">π</text></g><g class="dcg-svg-axis-value"><text fill="none" stroke="#ffffff" font-family="Arial" font-size="17px" font-style="normal" font-weight="normal" text-decoration="normal" x="433.33333333333326" y="218.124" text-anchor="middle" stroke-miterlimit="2" stroke-width="3" stroke-dasharray="">2π</text><text fill="#000000" stroke="none" font-family="Arial" font-size="17px" font-style="normal" font-weight="normal" text-decoration="normal" x="433.33333333333326" y="218.124" text-anchor="middle">2π</text></g><g class="dcg-svg-axis-value"><text fill="none" stroke="#ffffff" font-family="Arial" font-size="17px" font-style="normal" font-weight="normal" text-decoration="normal" x="566.6666666666666" y="218.124" text-anchor="middle" stroke-miterlimit="2" stroke-width="3" stroke-dasharray="">3π</text><text fill="#000000" stroke="none" font-family="Arial" font-size="17px" font-style="normal" font-weight="normal" text-decoration="normal" x="566.6666666666666" y="218.124" text-anchor="middle">3π</text></g><g class="dcg-svg-axis-value"><text fill="none" stroke="#ffffff" font-family="Arial" font-size="17px" font-style="normal" font-weight="normal" text-decoration="normal" x="154.10880533854166" y="364.624" text-anchor="middle" stroke-miterlimit="2" stroke-width="3" stroke-dasharray="">-1</text><text fill="#000000" stroke="none" font-family="Arial" font-size="17px" font-style="normal" font-weight="normal" text-decoration="normal" x="154.10880533854166" y="364.624" text-anchor="middle">-1</text></g><g class="dcg-svg-axis-value"><text fill="none" stroke="#ffffff" font-family="Arial" font-size="17px" font-style="normal" font-weight="normal" text-decoration="normal" x="156.93937174479166" y="44.624" text-anchor="middle" stroke-miterlimit="2" stroke-width="3" stroke-dasharray="">1</text><text fill="#000000" stroke="none" font-family="Arial" font-size="17px" font-style="normal" font-weight="normal" text-decoration="normal" x="156.93937174479166" y="44.624" text-anchor="middle">1</text></g></g></g></g><g id="expressions-71bfa38b"><g id="sketch-71bfa38b"><title>Expression 1</title><path fill="#c74440" stroke="none" paint-order="stroke fill markers" d="" fill-opacity="0.4"/><g><path fill="none" stroke="#c74440" class="dcg-svg-curve" paint-order="fill stroke markers" d=" M 2.842170943040401e-14 86.8629150101524 L 2.842170943040401e-14 86.8629150101524 L 3.8085937500000284 97.45721023894062 L 7.910156250000028 109.78672662217953 L 12.451171875000028 124.41423002643776 L 17.724609375 142.4740461084843 L 24.02343750000003 165.18331605784266 L 33.54492187500003 200.7976667054115 L 45.1171875 243.85550557899302 L 51.416015625000014 266.1262611148306 L 56.542968750000014 283.2018040172154 L 61.083984375000014 297.3206761659703 L 65.18554687500001 309.12073483495055 L 68.99414062500001 319.1683103030181 L 72.50976562500001 327.59352146359083 L 75.73242187500001 334.5492737807648 L 78.80859375 340.46604786538273 L 81.73828125000003 345.4157309167103 L 84.52148437500001 349.47670421950096 L 87.15820312500001 352.73144808762555 L 89.64843750000001 355.2644541900089 L 92.138671875 357.26308033543586 L 94.33593750000001 358.5772661957243 L 96.24023437500001 359.3725924108214 L 97.99804687500001 359.82203297480663 L 99.755859375 359.99735277311004 L 101.513671875 359.8982511037793 L 103.27148437500001 359.5248979422863 L 105.02929687500001 358.87793364999175 L 106.93359375000001 357.86959140162344 L 108.984375 356.4283772519216 L 111.328125 354.3343669263701 L 113.818359375 351.5940790154364 L 116.30859375 348.3320436263584 L 118.94531250000001 344.3219430243989 L 121.72851562500001 339.4852835297589 L 124.658203125 333.74669272124265 L 127.73437500000001 327.03607640869393 L 131.103515625 318.9223302640514 L 134.765625 309.2552874216397 L 138.720703125 297.9040845734073 L 142.96875 284.7685799498072 L 147.80273437500003 268.7968446116544 L 153.36914062500003 249.31431810493768 L 160.400390625 223.53756929549945 L 182.373046875 142.13066158253667 L 187.939453125 123.11951306941478 L 192.7734375 107.67013234309124 L 197.02148437499997 95.07481265726304 L 200.9765625 84.28984171095559 L 204.638671875 75.19714876884538 L 208.0078125 67.65055563621291 L 211.083984375 61.487096387295594 L 214.013671875 56.29292009719708 L 216.796875 51.99212147477158 L 219.43359375 48.50433308461629 L 221.923828125 45.746835667685076 L 224.4140625 43.52023761047087 L 226.7578125 41.91647725707463 L 228.80859375 40.908422844392675 L 230.712890625 40.30487627248317 L 232.470703125 40.033048110426364 L 234.228515625 40.03558927354672 L 235.986328125 40.3124954033365 L 237.744140625 40.8632915607719 L 239.6484375 41.767957678351536 L 241.69921875 43.09834247526271 L 243.896484375 44.93010535952226 L 246.38671875 47.508140110052494 L 248.876953125 50.61101226750429 L 251.513671875 54.4565636002753 L 254.296875 59.1246577516543 L 257.2265625 64.69228048203217 L 260.302734375 71.23139676555158 L 263.671875 79.16777969655415 L 267.1875 88.25980009456438 L 270.99609375 98.9721330384957 L 275.244140625 111.87550426337411 L 279.931640625 127.1319941660413 L 285.205078125 145.34725496405486 L 291.796875 169.26713647201734 L 302.9296875 211.03589242052283 L 312.451171875 246.269366290696 L 318.603515625 267.90919568363483 L 323.73046875 284.8726350311963 L 328.271484375 298.87181828947337 L 332.373046875 310.5484804245418 L 336.03515625 320.1053775447218 L 339.55078125 328.4400639404911 L 342.7734375 335.3077195179679 L 345.849609375 341.1363164603069 L 348.779296875 345.99874198336204 L 351.56249999999994 349.97424190601197 L 354.19921875 353.14603196762727 L 356.68945312499994 355.5992184788514 L 359.1796875 357.51687286131533 L 361.376953125 358.7588785090147 L 363.28125 359.4912478865865 L 365.0390625 359.8823595658551 L 366.796875 359.99924700953216 L 368.5546875 359.84170973665175 L 370.3125 359.4100179492445 L 372.216796875 358.6338461859926 L 374.12109375 357.53836291269 L 376.318359375 355.8804788066276 L 378.662109375 353.6517820528758 L 381.15234374999994 350.7706793370502 L 383.7890625 347.15474340659637 L 386.42578125 342.9710217603417 L 389.208984375 337.9567636081298 L 392.28515624999994 331.7256621536641 L 395.5078125 324.45654467351244 L 398.876953125 316.09086850432504 L 402.5390625 306.1702653779263 L 406.494140625 294.5710528914674 L 410.888671875 280.7251261731808 L 415.869140625 263.9961139948152 L 421.728515625 243.2060149898801 L 429.4921875 214.46101774045826 L 446.484375 151.21132324233557 L 452.490234375 130.20764805837692 L 457.470703125 113.83090892291123 L 461.865234375 100.35817978574612 L 465.966796875 88.74387651284037 L 469.62890625 79.24825630535605 L 473.14453125 70.97692652032688 L 476.3671874999999 64.17087116613769 L 479.4433593749999 58.40388270213336 L 482.2265625 53.82607232875981 L 484.86328125 50.0685596077185 L 487.4999999999999 46.889546282846595 L 489.990234375 44.429411271717555 L 492.48046875 42.5047098531773 L 494.677734375 41.256423748595836 L 496.5820312499999 40.51857753106913 L 498.33984375 40.12239250166465 L 500.09765625 40.00042355728348 L 501.85546875 40.15287989449132 L 503.61328125 40.57950002588797 L 505.37109375 41.27955222860089 L 507.2753906249999 42.34509872018319 L 509.47265625 43.96873569072159 L 511.81640625 46.16134976310735 L 514.306640625 49.004741367947815 L 516.943359375 52.58159310037735 L 519.580078125 56.72724787473416 L 522.3632812499999 61.70259023031454 L 525.29296875 67.58163524832992 L 528.5156249999999 74.77590461334782 L 531.8847656249999 83.06806664203 L 535.5468749999999 92.91478586453809 L 539.5019531249999 104.44186566504996 L 543.896484375 118.21771604552586 L 548.876953125 134.88103308728557 L 554.58984375 155.08338030787252 L 562.20703125 183.2184920570985 L 580.37109375 250.77133116902752 L 586.23046875 271.16947382033686 L 591.2109375 287.4576267057337 L 595.60546875 300.8374271434984 L 599.5605468749999 311.95957781961033 L 600 313.13708498984766" stroke-linecap="round" stroke-linejoin="round" stroke-miterlimit="10" stroke-width="3.5" stroke-opacity="0.9" stroke-dasharray=""/></g></g></g><g id="labels-71bfa38b"/></g></svg>